<svg width="142" height="68" viewBox="0 0 142 68" fill="none" xmlns="http://www.w3.org/2000/svg">
<path d="M108.231 0C126.881 0 142 15.1189 142 33.7686C142 52.4181 126.881 67.5361 108.231 67.5361C107.504 67.5361 106.783 67.5101 106.067 67.4648V67.5361H23.3779V67.4648C22.8067 67.5101 22.2294 67.5361 21.6465 67.5361C9.69171 67.5361 0.000236066 57.8453 0 45.8906C0 33.9357 9.69156 24.2441 21.6465 24.2441C27.6568 24.2442 33.0944 26.6941 37.0166 30.6494C40.4502 18.4597 51.6507 9.52462 64.9385 9.52441C70.7572 9.52441 76.1754 11.2388 80.7168 14.1885C86.8391 5.60054 96.881 6.27408e-06 108.231 0Z" fill="#CECCCC"/>
</svg>
