<svg width="39" height="43" viewBox="0 0 39 43" fill="none" xmlns="http://www.w3.org/2000/svg">
<path d="M20.0001 27C20.0001 27 20.0001 34.73 20.0001 37.5C20.0001 40.27 18.3692 41 17 41C15.6308 41 14 40 14 37.5" stroke="#111111" stroke-width="3"/>
<path d="M2 27C2.00076 24.6586 2.46832 19.8411 3.36504 17.6782C4.26176 15.5153 5.57571 13.5502 7.23187 11.8951C8.88803 10.24 10.854 8.92737 13.0174 8.03205C15.1809 7.13674 17.4995 6.67632 19.8409 6.67708C22.1823 6.67784 24.5006 7.13977 26.6635 8.03648C28.8264 8.9332 30.7915 10.2471 32.4466 11.9033C34.1017 13.5595 35.4143 15.5254 36.3097 17.6889C37.205 19.8523 38.0008 24.6587 38 27.0001C38 27.0001 35.1031 24.9999 33 24.9999C30.8969 24.9999 28 27.0001 28 27.0001C28 27.0001 23.2203 24.9999 19.9999 24.9999C16.7796 24.9999 12 27 12 27C12 27 9 25 6.5 24.9999C4.00001 24.9997 2 27 2 27Z" fill="#111111"/>
<rect x="18" y="3" width="4" height="5" fill="#111"/>
<path d="M36 6C36 6 39 8.89157 39 11.2048C39 12.747 37.6552 14 36 14C34.3448 14 33 12.747 33 11.2048C33 8.89157 36 6 36 6Z" fill="#111111"/>
<path d="M3 0C3 0 6 2.89157 6 5.20482C6 6.74699 4.65517 8 3 8C1.34483 8 0 6.74699 0 5.20482C0 2.89157 3 0 3 0Z" fill="#111111"/>
</svg>
