<svg width="142" height="132" viewBox="0 0 142 132" fill="none" xmlns="http://www.w3.org/2000/svg">
<path d="M16.6684 84.0428C16.6684 84.0428 23.3788 91.3203 23.3788 96.9544C23.3788 100.974 20.3739 104.063 16.6684 103.997C13.0221 103.932 9.95801 100.675 9.95801 96.7197C9.95801 91.3203 16.6684 84.0428 16.6684 84.0428Z" fill="#087FCA"/>
<path d="M62.9921 111.275C62.9921 111.275 69.7025 118.552 69.7025 124.186C69.7025 128.205 66.6977 131.295 62.9921 131.229C59.3459 131.164 56.2817 127.906 56.2817 123.951C56.2817 118.552 62.9921 111.275 62.9921 111.275Z" fill="#087FCA"/>
<path d="M103.252 78.4087C103.252 78.4087 109.963 85.6861 109.963 91.3203C109.963 95.3395 106.958 98.4288 103.252 98.363C99.6061 98.2981 96.542 95.0404 96.542 91.0855C96.542 85.6861 103.252 78.4087 103.252 78.4087Z" fill="#087FCA"/>
<path d="M108.231 0C126.881 0 142 16.3963 142 36.6221C142 56.8478 126.881 73.2441 108.231 73.2441C107.505 73.2441 106.784 73.217 106.068 73.168V73.2441H23.3789V73.1689C22.8074 73.218 22.2297 73.2441 21.6465 73.2441C9.69161 73.2441 0.00010551 62.7337 0 49.7686C0 36.8033 9.69154 26.293 21.6465 26.293C27.6573 26.293 33.0944 28.9511 37.0166 33.2412C40.4497 20.0204 51.6511 10.3293 64.9395 10.3291C70.7578 10.3291 76.1756 12.1882 80.7168 15.3867C86.8391 6.07337 96.8812 7.3484e-05 108.231 0Z" fill="#CECCCC" fill-opacity="0.8"/>
</svg>
