<svg width="40" height="40" viewBox="0 0 40 40" fill="none" xmlns="http://www.w3.org/2000/svg">
<path d="M0 12.0002C0 12.0002 22.73 12.0002 25.5 12.0002C28.27 12.0002 30 10 30 7.0001C30 4.00021 29.5 2.00009 25.5 2C21.5 1.99991 20 4.00011 20 7.0001" stroke="#111111" stroke-width="4"/>
<path d="M0 20C0 20 29.2257 20 32.5496 20C35.8735 20 37.9495 22.4002 37.9495 26C37.9495 29.5998 37.3495 31.9999 32.5496 32C27.7497 32.0001 25.9497 29.5999 25.9497 26" stroke="#111111" stroke-width="4"/>
<path d="M0 28C0 28 10.73 28 13.5 28C16.27 28 18 30.0002 18 33.0001C18 36 17.5 38.0002 13.5 38.0002C9.5 38.0003 8 36.0001 8 33.0001" stroke="#111111" stroke-width="4"/>
</svg>
